# xmcd CD database file
#
# Track frame offsets:
#	150
#	28285
#	66874
#	92814
#
# Disc length: 2618 seconds
#
# Revision: 0
# Processed by: cddbd v1.5.1PL0 Copyright (c) Steve Scherf et al.
# Submitted via: CDex 1.51
#
DISCID=320a3804
DTITLE=Banco Popular - Somos Un Solo Pueblo-CD#2
DYEAR=1900
DGENRE=Salsa
TTITLE0=Madley De Salsa
TTITLE1=Festival De Merengue (Medley)
TTITLE2=Medley De Canciones De Mexico
TTITLE3=Grand Finale
EXTD=
EXTT0=
EXTT1=
EXTT2=
EXTT3=
PLAYORDER=
